<svg xmlns="http://www.w3.org/2000/svg" viewBox="0 0 512 512">
  <rect width="512" height="512" rx="112" fill="#14231f"/>
  <path d="M132 126c0-18 19-30 35-22l78 39 91-45c20-10 44 5 44 28v249c0 9-5 18-14 22l-111 55-108-54c-9-4-15-13-15-23V126Z" fill="#f6f3ea"/>
  <path d="m245 143 10 309M147 106v292m219-292v291" stroke="#f1663b" stroke-width="22"/>
  <circle cx="255" cy="242" r="58" fill="#f1663b"/>
  <circle cx="255" cy="242" r="23" fill="#f6f3ea"/>
  <path d="m222 286 33 69 34-69" fill="#f1663b"/>
</svg>
